<svg xmlns="http://www.w3.org/2000/svg" width="18.04" height="18.04" viewBox="0 0 18.04 18.04">
  <g id="Icon_feather-instagram" data-name="Icon feather-instagram" transform="translate(1 1)">
    <path id="Path_1" data-name="Path 1" d="M7.01,3h8.02a4.01,4.01,0,0,1,4.01,4.01v8.02a4.01,4.01,0,0,1-4.01,4.01H7.01A4.01,4.01,0,0,1,3,15.03V7.01A4.01,4.01,0,0,1,7.01,3Z" transform="translate(-3 -3)" fill="none" stroke="#fff" stroke-linecap="round" stroke-linejoin="round" stroke-width="2"/>
    <path id="Path_2" data-name="Path 2" d="M18.446,14.672a3.208,3.208,0,1,1-2.7-2.7A3.208,3.208,0,0,1,18.446,14.672Z" transform="translate(-7.218 -7.158)" fill="none" stroke="#fff" stroke-linecap="round" stroke-linejoin="round" stroke-width="2"/>
    <path id="Path_3" data-name="Path 3" d="M26.25,9.75h0" transform="translate(-13.819 -6.141)" fill="none" stroke="#fff" stroke-linecap="round" stroke-linejoin="round" stroke-width="3"/>
  </g>
</svg>
