<svg xmlns="http://www.w3.org/2000/svg" width="16.842" height="16.842" viewBox="0 0 16.842 16.842">
  <path id="Icon_awesome-linkedin-in" data-name="Icon awesome-linkedin-in" d="M3.77,16.842H.278V5.6H3.77ZM2.022,4.064A2.032,2.032,0,1,1,4.044,2.023,2.039,2.039,0,0,1,2.022,4.064ZM16.838,16.842H13.354V11.369c0-1.3-.026-2.977-1.815-2.977-1.815,0-2.094,1.417-2.094,2.883v5.568H5.957V5.6H9.306V7.132h.049a3.669,3.669,0,0,1,3.3-1.816c3.534,0,4.183,2.327,4.183,5.35v6.177Z" transform="translate(0 0)" fill="#fff"/>
</svg>
