<svg xmlns="http://www.w3.org/2000/svg" xmlns:xlink="http://www.w3.org/1999/xlink" width="24" height="24" viewBox="0 0 24 24">
  <defs>
    <clipPath id="clip-path">
      <rect id="Rectangle_118" data-name="Rectangle 118" width="24" height="24" transform="translate(0 0.282)" fill="none"/>
    </clipPath>
  </defs>
  <g id="Group_22529" data-name="Group 22529" transform="translate(-924 -1473)">
    <rect id="Rectangle_113" data-name="Rectangle 113" width="2.54" height="3.176" transform="translate(934.925 1473.592)" fill="#a4daff"/>
    <path id="Path_1512" data-name="Path 1512" d="M20.183,15.193,19.1,6.208H8.93L7.845,15.193l-.185,2,5.431-3.4.924-2.557.924,2.557,5.431,3.4Z" transform="translate(922.179 1471.037)" fill="#fff"/>
    <path id="Path_1513" data-name="Path 1513" d="M13.279,15.041,9.468,18.249,4.577,19.805l2.787,6.344L8.61,24.9h2.112l2.556,2.556h0L15.841,24.9h2.111L19.2,26.149l2.788-6.344-4.891-1.556-3.811-3.207Z" transform="translate(922.912 1468.936)" fill="#a4daff"/>
    <g id="Group_22516" data-name="Group 22516" transform="translate(924 1472.718)">
      <g id="Group_22515" data-name="Group 22515" clip-path="url(#clip-path)">
        <path id="Path_1514" data-name="Path 1514" d="M23.628,23.2a3.119,3.119,0,0,0-2.492,1.417c-.476.572-.752.87-1.322.87a1.137,1.137,0,0,1-.791-.306.773.773,0,0,0,.087-.132l2.922-6.229a.765.765,0,0,0-.069-.767.757.757,0,0,0-.7-.315,8.909,8.909,0,0,1-6.3-2.457,5.187,5.187,0,0,1-2.006-3.514.762.762,0,1,0-1.524,0,5.139,5.139,0,0,1-1.97,3.466,9.026,9.026,0,0,1-6.338,2.5.762.762,0,0,0-.766,1.082l2.922,6.229a.681.681,0,0,0,.09.122,1.137,1.137,0,0,1-.8.316c-.569,0-.843-.3-1.319-.869A3.113,3.113,0,0,0,.762,23.2a.762.762,0,1,0,0,1.524c.569,0,.843.3,1.319.87a3.116,3.116,0,0,0,2.49,1.417,3.114,3.114,0,0,0,2.491-1.418c.476-.571.751-.869,1.319-.869s.842.3,1.318.869a3.113,3.113,0,0,0,2.49,1.418h.01a3.119,3.119,0,0,0,2.481-1.416c.476-.572.751-.87,1.32-.87s.845.3,1.322.87a3.119,3.119,0,0,0,2.492,1.417,3.117,3.117,0,0,0,2.492-1.417c.476-.572.752-.87,1.322-.87a.762.762,0,1,0,0-1.524M10.87,24.613A3.111,3.111,0,0,0,8.381,23.2a2.671,2.671,0,0,0-1.914.789L4.245,19.246a11.39,11.39,0,0,0,6.239-2.887,9.9,9.9,0,0,0,.948-.979v9.826a4.36,4.36,0,0,1-.563-.592M16,23.2a3.118,3.118,0,0,0-2.492,1.417,4.348,4.348,0,0,1-.551.582v-9.8a10.091,10.091,0,0,0,.987,1.017,11.107,11.107,0,0,0,6.2,2.847l-2.22,4.732A2.679,2.679,0,0,0,16,23.2" transform="translate(0 -2.821)" fill="#003575"/>
        <path id="Path_1515" data-name="Path 1515" d="M7.693,13.717a.759.759,0,0,0,.829-.69l.7-7.691H18.5l.7,7.691a.763.763,0,0,0,.758.693c.023,0,.046,0,.07,0a.762.762,0,0,0,.69-.829L19.954,4.5a.762.762,0,0,0-.759-.693H16.146V.762A.762.762,0,0,0,15.384,0H12.335a.762.762,0,0,0-.762.762V3.811H8.524a.762.762,0,0,0-.759.693L7,12.888a.762.762,0,0,0,.69.829M13.1,1.524h1.524V3.811H13.1Z" transform="translate(-1.665 -0.205)" fill="#003575"/>
        <rect id="Rectangle_114" data-name="Rectangle 114" height="1" transform="translate(9 6.282)" fill="#003575"/>
        <rect id="Rectangle_115" data-name="Rectangle 115" height="2" transform="translate(9 8.282)" fill="#003575"/>
        <rect id="Rectangle_116" data-name="Rectangle 116" width="1" height="1" transform="translate(15 6.282)" fill="#003575"/>
        <rect id="Rectangle_117" data-name="Rectangle 117" width="1" height="2" transform="translate(15 8.282)" fill="#003575"/>
        <path id="Path_1516" data-name="Path 1516" d="M19.762,21a.762.762,0,0,0-.762.762v1.524a.762.762,0,0,0,1.524,0V21.762A.762.762,0,0,0,19.762,21" transform="translate(-4.518 -5.199)" fill="#003575"/>
        <path id="Path_1517" data-name="Path 1517" d="M11.762,21a.762.762,0,0,0-.762.762v1.524a.762.762,0,1,0,1.524,0V21.762A.762.762,0,0,0,11.762,21" transform="translate(-2.616 -5.199)" fill="#003575"/>
      </g>
    </g>
  </g>
</svg>
