<svg xmlns="http://www.w3.org/2000/svg" xmlns:xlink="http://www.w3.org/1999/xlink" width="24" height="20" viewBox="0 0 24 20">
  <defs>
    <clipPath id="clip-path">
      <rect id="Rectangle_111" data-name="Rectangle 111" width="24" height="20" fill="none"/>
    </clipPath>
  </defs>
  <g id="Group_22528" data-name="Group 22528" transform="translate(-924 -1427)">
    <path id="Path_1499" data-name="Path 1499" d="M25.594,7.563H27.9l1.6,4.168H25.594Z" transform="translate(917.914 1425.202)" fill="#a4daff"/>
    <rect id="Rectangle_110" data-name="Rectangle 110" width="13.29" height="15.245" transform="translate(925 1427.571)" fill="#a4daff"/>
    <path id="Path_1500" data-name="Path 1500" d="M19.5,6.937V17.465h8.86V11.558H23.692V6.937Z" transform="translate(919.363 1425.35)" fill="#fff"/>
    <g id="Group_22511" data-name="Group 22511" transform="translate(924 1427)">
      <g id="Group_22510" data-name="Group 22510" clip-path="url(#clip-path)">
        <path id="Path_1501" data-name="Path 1501" d="M8.606,21.272a2.334,2.334,0,1,1-2.335-2.335,2.335,2.335,0,0,1,2.335,2.335" transform="translate(-0.936 -4.503)" fill="#fff"/>
        <path id="Path_1502" data-name="Path 1502" d="M26.606,21.272a2.334,2.334,0,1,1-2.335-2.335,2.335,2.335,0,0,1,2.335,2.335" transform="translate(-5.217 -4.503)" fill="#fff"/>
        <path id="Path_1503" data-name="Path 1503" d="M24.315,9.588c0-.006,0-.014,0-.021L22.024,4.995a.763.763,0,0,0-.682-.421h-6.1V.762A.762.762,0,0,0,14.482,0H.762A.762.762,0,0,0,0,.762V16.006a.762.762,0,0,0,.762.762H2.287a3.049,3.049,0,0,0,6.1,0h7.622a3.049,3.049,0,0,0,6.1,0h1.524a.762.762,0,0,0,.762-.762v-6.1a.755.755,0,0,0-.075-.32m-18.98,8.7a1.526,1.526,0,0,1-1.524-1.524,1.5,1.5,0,0,1,.089-.494s.005-.008.007-.013a1.529,1.529,0,0,1,.937-.929l.068-.021a1.37,1.37,0,0,1,.847,0l.069.021a1.531,1.531,0,0,1,.937.929s.005.008.007.013a1.5,1.5,0,0,1,.089.494,1.526,1.526,0,0,1-1.524,1.524m8.384-3.049H7.966c-.009-.016-.021-.03-.03-.045-.051-.084-.1-.165-.163-.243-.046-.061-.1-.118-.146-.176a3.176,3.176,0,0,0-.28-.284c-.071-.063-.143-.125-.22-.181s-.127-.088-.193-.13a2.9,2.9,0,0,0-.306-.166c-.058-.027-.115-.056-.175-.079a2.96,2.96,0,0,0-.43-.134c-.051-.011-.1-.022-.152-.031a2.993,2.993,0,0,0-.537-.054,2.993,2.993,0,0,0-.537.054c-.051.009-.1.02-.152.031a2.96,2.96,0,0,0-.43.134c-.059.024-.117.052-.175.079a2.9,2.9,0,0,0-.306.166c-.066.041-.13.084-.193.13s-.149.118-.22.181a3.176,3.176,0,0,0-.28.284c-.05.058-.1.115-.146.176-.059.079-.112.159-.163.243-.009.015-.021.029-.03.045H1.524V1.524h12.2Zm6.1-9.146h1.053l1.524,3.049H19.817Zm-.762,12.2a1.526,1.526,0,0,1-1.524-1.524,1.5,1.5,0,0,1,.089-.494l.007-.013a1.529,1.529,0,0,1,.937-.929l.068-.021a1.37,1.37,0,0,1,.847,0l.069.021a1.532,1.532,0,0,1,.936.929l.007.013a1.5,1.5,0,0,1,.089.494,1.526,1.526,0,0,1-1.524,1.524m3.811-3.049H21.685c-.009-.016-.021-.03-.03-.045-.051-.084-.1-.165-.163-.243-.046-.061-.1-.118-.146-.176a3.176,3.176,0,0,0-.28-.284c-.071-.063-.143-.125-.22-.181s-.127-.088-.193-.13a2.9,2.9,0,0,0-.306-.166c-.058-.027-.115-.056-.175-.079a2.96,2.96,0,0,0-.43-.134c-.051-.011-.1-.022-.152-.031a2.687,2.687,0,0,0-1.073,0c-.051.009-.1.02-.152.031a2.96,2.96,0,0,0-.43.134c-.059.024-.117.052-.175.079a2.9,2.9,0,0,0-.306.166c-.066.041-.13.084-.193.13s-.149.118-.22.181a3.176,3.176,0,0,0-.28.284c-.05.058-.1.115-.146.176-.059.079-.112.159-.163.243-.009.015-.021.029-.03.045H15.244V6.1h3.049V9.909a.762.762,0,0,0,.762.762h3.811Z" fill="#003575"/>
        <path id="Path_1504" data-name="Path 1504" d="M4.762,9.524h7.622a.762.762,0,1,0,0-1.524H4.762a.762.762,0,1,0,0,1.524" transform="translate(-0.951 -1.902)" fill="#003575"/>
        <path id="Path_1505" data-name="Path 1505" d="M4.762,5.524h7.622a.762.762,0,1,0,0-1.524H4.762a.762.762,0,0,0,0,1.524" transform="translate(-0.951 -0.951)" fill="#003575"/>
      </g>
    </g>
  </g>
</svg>
