<svg xmlns="http://www.w3.org/2000/svg" xmlns:xlink="http://www.w3.org/1999/xlink" width="24" height="25" viewBox="0 0 24 25">
  <defs>
    <clipPath id="clip-path">
      <rect id="Rectangle_144" data-name="Rectangle 144" width="24" height="25" transform="translate(0 -0.355)" fill="none"/>
    </clipPath>
  </defs>
  <g id="Group_22533" data-name="Group 22533" transform="translate(-924 -1663)">
    <g id="Group_22527" data-name="Group 22527" transform="translate(924 1663.355)" clip-path="url(#clip-path)">
      <path id="Path_1534" data-name="Path 1534" d="M4,18.533V8.768c0-.316.293-.851.584-.726l8.3,3.872a.441.441,0,0,1,.268.405V22.808a.442.442,0,0,1-.615.405l-8.3-3.873C4.074,19.272,4,18.709,4,18.533" transform="translate(-0.951 -2.013)" fill="#fff"/>
      <path id="Path_1535" data-name="Path 1535" d="M17,11.488,27.457,6.844v12.2L17,23.588Z" transform="translate(-4.043 -1.733)" fill="#a4daff"/>
      <path id="Path_1536" data-name="Path 1536" d="M4.316,6.328,9.077,3.875l9.337,4.6-4.883,2.262Z" transform="translate(-1.026 -1.027)" fill="#a4daff"/>
      <path id="Path_1537" data-name="Path 1537" d="M10.906,2.949,15.991.681l9.755,4.412L20.863,7.355Z" transform="translate(-2.594 -0.267)" fill="#a4daff"/>
      <path id="Path_1538" data-name="Path 1538" d="M9.672,23.8A3.842,3.842,0,1,1,5.83,19.959,3.842,3.842,0,0,1,9.672,23.8" transform="translate(-0.473 -4.852)" fill="#a4daff"/>
      <path id="Path_1539" data-name="Path 1539" d="M5.4,22.388a.762.762,0,0,0-1.268.845L5.652,25.52a.754.754,0,0,0,.175.18c.007,0,.01.013.017.018s.023.01.033.017a.77.77,0,0,0,.142.071c.021.008.04.017.06.023a.759.759,0,0,0,.2.031h.007a.753.753,0,0,0,.3-.072.6.6,0,0,0,.063-.03c.018-.01.038-.014.056-.026a.777.777,0,0,0,.152-.152c.013-.016.033-.022.046-.039l.016-.024,3.794-5.312a.762.762,0,1,0-1.24-.886L6.308,23.756Z" transform="translate(-0.951 -4.624)" fill="#003575"/>
      <path id="Path_1540" data-name="Path 1540" d="M9.909,22.573a.762.762,0,0,0-.762.762,3.811,3.811,0,1,1-3.811-3.811.762.762,0,0,0,0-1.524,5.335,5.335,0,1,0,5.335,5.335.762.762,0,0,0-.762-.762" transform="translate(0 -4.386)" fill="#003575"/>
      <path id="Path_1541" data-name="Path 1541" d="M24.866,5.339v0a.751.751,0,0,0-.049-.254c-.007-.018-.013-.035-.021-.053a.77.77,0,0,0-.139-.216L24.636,4.8a.746.746,0,0,0-.112-.1.739.739,0,0,0-.1-.047c-.009,0-.015-.013-.024-.017L13.733.063l-.008,0A.761.761,0,0,0,13.5.012c-.022,0-.043-.012-.066-.012a.794.794,0,0,0-.108.021.724.724,0,0,0-.185.04l-.008,0L7.818,2.34l-.005,0L2.462,4.636c-.008,0-.014.011-.022.015a.777.777,0,0,0-.1.049.746.746,0,0,0-.112.1l-.021.018a.77.77,0,0,0-.139.216c-.008.018-.014.034-.021.053A.751.751,0,0,0,2,5.336v0H2V12.2a.762.762,0,1,0,1.524,0v-5.7l9.146,3.92V22.1a.761.761,0,0,0,.053.264c.007.018.013.037.021.054a.756.756,0,0,0,.14.209c.011.011.024.019.035.03a.766.766,0,0,0,.092.079.725.725,0,0,0,.082.038.605.605,0,0,0,.075.034.718.718,0,0,0,.563-.008h0L24.4,18.231a.76.76,0,0,0,.462-.7V5.34Zm-6.1,1.454L10.032,3.05l3.4-1.458,8.736,3.745ZM4.7,5.336,8.1,3.878l8.736,3.744-3.4,1.458ZM23.342,17.028,14.2,20.948V10.412l9.146-3.92Z" transform="translate(-0.476 -0.105)" fill="#003575"/>
      <path id="Path_1542" data-name="Path 1542" d="M23.962,20.7a.753.753,0,0,0,.293-.059l2.134-.889h0a.779.779,0,0,0,.247-.166,26.37,26.37,0,0,0,.162-.244.744.744,0,0,0,.059-.291V16.762a.762.762,0,1,0-1.524,0v1.779l-1.665.694a.762.762,0,0,0,.293,1.466" transform="translate(-5.517 -3.91)" fill="#003575"/>
    </g>
  </g>
</svg>
