<svg xmlns="http://www.w3.org/2000/svg" xmlns:xlink="http://www.w3.org/1999/xlink" width="24" height="24" viewBox="0 0 24 24">
  <defs>
    <clipPath id="clip-path">
      <rect id="Rectangle_112" data-name="Rectangle 112" width="24" height="24" transform="translate(0 0.201)" fill="none"/>
    </clipPath>
  </defs>
  <g id="Group_22534" data-name="Group 22534" transform="translate(-924 -1759)">
    <g id="Group_22513" data-name="Group 22513" transform="translate(924 1758.799)" clip-path="url(#clip-path)">
      <path id="Path_1506" data-name="Path 1506" d="M14.663,5.96c-1.955,0-4.285.9-4.285,5.176,0,4.248,2.579,7.066,4.285,7.066s4.285-2.818,4.285-7.066c0-4.278-2.33-5.176-4.285-5.176" transform="translate(-2.468 -1.628)" fill="#fff"/>
      <path id="Path_1507" data-name="Path 1507" d="M19.15,25.565l-2.914-1.93c-.451.837-2.027,1.644-3.918,1.644a4.724,4.724,0,0,1-3.9-1.609L6.066,25.311l-3.652.762L.667,29.344H23.184V26.581Z" transform="translate(-0.159 -5.831)" fill="#a4daff"/>
      <path id="Path_1508" data-name="Path 1508" d="M24.377,29.034a.613.613,0,0,0,0-.065c-.452-2.635-1.7-4.207-3.339-4.207l-.286,0c-1.351,0-2.34.013-3.362-1.439a.762.762,0,0,0-1.246.877,4.79,4.79,0,0,0,4.617,2.085h.277c.73,0,1.3.934,1.627,2.05H1.72c.322-1.115.875-2.05,1.588-2.05H3.58A4.823,4.823,0,0,0,8.249,24.2.762.762,0,1,0,7,23.328c-1,1.449-2.074,1.444-3.406,1.434H3.308c-1.62,0-2.852,1.573-3.3,4.21a.606.606,0,0,0,0,.065A.593.593,0,0,0,0,29.1a.663.663,0,0,0,.018.086.726.726,0,0,0,.03.151.734.734,0,0,0,.059.13.749.749,0,0,0,.081.12.762.762,0,0,0,.1.1.676.676,0,0,0,.261.134.78.78,0,0,0,.083.032.884.884,0,0,0,.127.01H23.629a.814.814,0,0,0,.128-.011.725.725,0,0,0,.08-.031.68.68,0,0,0,.145-.056.669.669,0,0,0,.116-.078.708.708,0,0,0,.107-.1.762.762,0,0,0,.079-.118.685.685,0,0,0,.059-.132.735.735,0,0,0,.03-.149.818.818,0,0,0,.017-.086c0-.023-.011-.042-.013-.064" transform="translate(0 -5.68)" fill="#003575"/>
      <path id="Path_1509" data-name="Path 1509" d="M8.274,11.031H5.558l-.714,1.62v2.168l1.6.738H8.7Z" transform="translate(-1.152 -2.834)" fill="#a4daff"/>
      <path id="Path_1510" data-name="Path 1510" d="M22.46,11.031h2.716l.714,1.62v2.168l-1.6.739H22.031Z" transform="translate(-5.239 -2.834)" fill="#a4daff"/>
      <path id="Path_1511" data-name="Path 1511" d="M20.742,7.754a.685.685,0,0,0,.027-.132C20.768,2.636,18.133,0,13.146,0S5.524,2.636,5.524,7.622a.685.685,0,0,0,.027.132A2.282,2.282,0,0,0,4,9.909v1.524A2.289,2.289,0,0,0,6.287,13.72H7.811a.748.748,0,0,0,.339-.088c1.065,2.794,3.134,4.662,5,4.662a3.276,3.276,0,0,0,1-.163.762.762,0,1,0-.467-1.451,1.759,1.759,0,0,1-.537.09c-1.688,0-4.192-2.972-4.192-7.078,0-3.4,1.411-5.117,4.192-5.117A3.8,3.8,0,0,1,16.353,5.95a.762.762,0,0,0,1.21-.926,5.305,5.305,0,0,0-4.417-1.975,5.234,5.234,0,0,0-5.52,4.573H7.049c0-4.16,1.938-6.1,6.1-6.1s6.1,1.938,6.1,6.1H18.072a.664.664,0,0,0-.14,0,.762.762,0,0,0-.663.849,10.066,10.066,0,0,1,.07,1.219,9.641,9.641,0,0,1-.483,3.028.76.76,0,0,0,.485.962.748.748,0,0,0,.239.039.773.773,0,0,0,.092-.014c.024,0,.046.014.071.014h1.5a.762.762,0,0,1-.762.762H15.433V13.72a.762.762,0,0,0-1.524,0v1.524a.762.762,0,0,0,.762.762h3.811a2.289,2.289,0,0,0,2.287-2.287v-.14a2.283,2.283,0,0,0,1.524-2.146V9.909a2.282,2.282,0,0,0-1.551-2.155M7.447,9.146c-.008.179-.017.357-.017.544a11.265,11.265,0,0,0,.284,2.5H6.287a.762.762,0,0,1-.762-.762V9.909a.762.762,0,0,1,.762-.762Zm13.322,2.287a.762.762,0,0,1-.762.762h-1.43a11.189,11.189,0,0,0,.287-2.5c0-.185-.008-.365-.016-.544h1.159a.762.762,0,0,1,.762.762Z" transform="translate(-0.951 -0.21)" fill="#003575"/>
    </g>
  </g>
</svg>
