<svg xmlns="http://www.w3.org/2000/svg" xmlns:xlink="http://www.w3.org/1999/xlink" width="24" height="24" viewBox="0 0 24 24">
  <defs>
    <clipPath id="clip-path">
      <rect id="Rectangle_121" data-name="Rectangle 121" width="24" height="24" transform="translate(0 -0.299)" fill="none"/>
    </clipPath>
  </defs>
  <g id="Group_22530" data-name="Group 22530" transform="translate(-924 -1519)">
    <rect id="Rectangle_119" data-name="Rectangle 119" width="2.572" height="13.624" transform="translate(944.817 1525.114)" fill="#a4daff"/>
    <rect id="Rectangle_120" data-name="Rectangle 120" width="16.26" height="19.754" transform="translate(925.017 1523.224)" fill="#fff"/>
    <g id="Group_22519" data-name="Group 22519" transform="translate(924 1519.299)">
      <g id="Group_22518" data-name="Group 22518" clip-path="url(#clip-path)">
        <path id="Path_1518" data-name="Path 1518" d="M12.362,2.481c0-.771-.886-1.4-1.977-1.4s-1.977.626-1.977,1.4H5.041V5.276H15.728V2.481Z" transform="translate(-1.199 -0.208)" fill="#a4daff"/>
        <path id="Path_1519" data-name="Path 1519" d="M16.768,3.049H15.244V2.287a.762.762,0,0,0-.762-.762H11.777a3.032,3.032,0,0,0-5.261,0H3.811a.762.762,0,0,0-.762.762v.762H1.524A1.526,1.526,0,0,0,0,4.573V22.866A1.527,1.527,0,0,0,1.524,24.39H16.768a1.527,1.527,0,0,0,1.524-1.524V4.573a1.526,1.526,0,0,0-1.524-1.524m-12.2,0H7a.764.764,0,0,0,.718-.507,1.511,1.511,0,0,1,2.857,0,.764.764,0,0,0,.718.506H13.72V4.573H4.573Zm12.2,19.817H1.524V4.573H3.049v.762a.762.762,0,0,0,.762.762H14.482a.762.762,0,0,0,.762-.762V4.573h1.524Z" transform="translate(0 0.05)" fill="#003575"/>
        <path id="Path_1520" data-name="Path 1520" d="M17.573,12H13.762a.762.762,0,1,0,0,1.524h3.811a.762.762,0,1,0,0-1.524" transform="translate(-3.091 -2.803)" fill="#003575"/>
        <path id="Path_1521" data-name="Path 1521" d="M17.573,18H13.762a.762.762,0,0,0,0,1.524h3.811a.762.762,0,0,0,0-1.524" transform="translate(-3.091 -4.23)" fill="#003575"/>
        <path id="Path_1522" data-name="Path 1522" d="M17.573,24H13.762a.762.762,0,1,0,0,1.524h3.811a.762.762,0,0,0,0-1.524" transform="translate(-3.091 -5.657)" fill="#003575"/>
        <path id="Path_1523" data-name="Path 1523" d="M29.811,6.287V4.762A.762.762,0,0,0,29.049,4H27.524a.762.762,0,0,0-.762.762V6.287A.762.762,0,0,0,26,7.049V20.006a.762.762,0,0,0,.762.762v1.524a.762.762,0,0,0,.762.762v1.524a.762.762,0,1,0,1.524,0V23.055a.762.762,0,0,0,.762-.762V20.768a.762.762,0,0,0,.762-.762V7.049a.762.762,0,0,0-.762-.762M27.524,7.811h1.524V19.244H27.524Z" transform="translate(-6.183 -0.901)" fill="#003575"/>
        <path id="Path_1524" data-name="Path 1524" d="M7.963,10.3,6.2,12.651l-.9-.9a.762.762,0,0,0-1.078,1.078L5.748,14.35c.013.013.031.018.046.03s.021.029.036.04a.7.7,0,0,0,.116.061.763.763,0,0,0,.079.04.747.747,0,0,0,.262.052h0A.755.755,0,0,0,6.6,14.5a.658.658,0,0,0,.088-.059.725.725,0,0,0,.139-.092c.015-.015.021-.036.034-.052s.026-.017.037-.03l2.287-3.049a.762.762,0,0,0-1.22-.914" transform="translate(-0.951 -2.328)" fill="#003575"/>
        <path id="Path_1525" data-name="Path 1525" d="M7.963,16.3,6.2,18.651l-.9-.9a.762.762,0,0,0-1.078,1.078L5.748,20.35c.013.013.031.018.046.03s.021.029.036.04a.7.7,0,0,0,.116.061.763.763,0,0,0,.079.04.747.747,0,0,0,.262.052h0A.755.755,0,0,0,6.6,20.5a.659.659,0,0,0,.088-.059.725.725,0,0,0,.139-.092c.015-.015.021-.036.034-.052s.026-.017.037-.03l2.287-3.049a.762.762,0,0,0-1.22-.914" transform="translate(-0.951 -3.755)" fill="#003575"/>
        <path id="Path_1526" data-name="Path 1526" d="M7.963,22.3,6.2,24.651l-.9-.9a.762.762,0,0,0-1.078,1.078L5.748,26.35c.013.013.031.018.046.03s.021.029.036.04a.7.7,0,0,0,.116.061.763.763,0,0,0,.079.04.747.747,0,0,0,.262.052h0A.755.755,0,0,0,6.6,26.5a.659.659,0,0,0,.088-.059.725.725,0,0,0,.139-.092c.015-.015.021-.036.034-.052s.026-.017.037-.03l2.287-3.049a.762.762,0,0,0-1.22-.914" transform="translate(-0.951 -5.182)" fill="#003575"/>
      </g>
    </g>
  </g>
</svg>
