<svg xmlns="http://www.w3.org/2000/svg" xmlns:xlink="http://www.w3.org/1999/xlink" width="24" height="19" viewBox="0 0 24 19">
  <defs>
    <clipPath id="clip-path">
      <rect id="Rectangle_122" data-name="Rectangle 122" width="24" height="19" transform="translate(0 -0.362)" fill="none"/>
    </clipPath>
  </defs>
  <g id="Group_22532" data-name="Group 22532" transform="translate(-924 -1619)">
    <path id="Path_1527" data-name="Path 1527" d="M25,7.208v4.415h4.16L27.08,7.208Z" transform="translate(918.055 1617.648)" fill="#fff"/>
    <path id="Path_1528" data-name="Path 1528" d="M23.216,11.623V7.208H18.993v4.415h-.024v5.335h8.948V11.623Z" transform="translate(919.489 1617.648)" fill="#a4daff"/>
    <g id="Group_22522" data-name="Group 22522" transform="translate(924 1619.362)">
      <g id="Group_22521" data-name="Group 22521" clip-path="url(#clip-path)">
        <path id="Path_1529" data-name="Path 1529" d="M26.311,20.405A1.905,1.905,0,1,1,24.405,18.5a1.905,1.905,0,0,1,1.905,1.905" transform="translate(-5.351 -4.4)" fill="#fff"/>
        <path id="Path_1530" data-name="Path 1530" d="M8.311,20.405A1.905,1.905,0,1,1,6.405,18.5a1.905,1.905,0,0,1,1.905,1.905" transform="translate(-1.07 -4.4)" fill="#fff"/>
        <path id="Path_1531" data-name="Path 1531" d="M9.277,9.362h5.312V.906H1.917L.547,2.276,2.6,4.324V6.313L3.709,7.427H4.8V9.743Z" transform="translate(-0.13 -0.216)" fill="#a4daff"/>
        <path id="Path_1532" data-name="Path 1532" d="M24.315,9.588c0-.007,0-.014,0-.021L22.024,4.995a.763.763,0,0,0-.682-.421h-6.1V.762A.762.762,0,0,0,14.482,0H2.244A2.268,2.268,0,0,0,0,2.287,2.277,2.277,0,0,0,1.687,4.493a2.307,2.307,0,0,0-.162.842A2.268,2.268,0,0,0,3.768,7.622h.181a2.3,2.3,0,0,0-.138.762,2.268,2.268,0,0,0,2.244,2.287H9.909a.762.762,0,1,0,0-1.524H6.055a.763.763,0,0,1,0-1.524H9.019a.762.762,0,0,0,0-1.524H3.768a.763.763,0,0,1,0-1.524H6.733a.762.762,0,1,0,0-1.524H2.244a.743.743,0,0,1-.72-.762.743.743,0,0,1,.72-.762H13.72V14.482H7.96a3.022,3.022,0,0,0-5.25,0H.762a.762.762,0,1,0,0,1.524H2.287a3.049,3.049,0,1,0,6.1,0h7.622a3.049,3.049,0,1,0,6.1,0h1.524a.762.762,0,0,0,.762-.762V9.909a.752.752,0,0,0-.075-.32M5.335,17.531A1.524,1.524,0,1,1,6.86,16.006a1.526,1.526,0,0,1-1.524,1.524M19.817,6.1h1.053l1.524,3.049H19.817Zm-.762,11.433a1.526,1.526,0,0,1-1.524-1.524,1.5,1.5,0,0,1,.09-.495l.006-.012a1.525,1.525,0,0,1,.936-.928l.069-.022a1.37,1.37,0,0,1,.847,0l.068.021a1.529,1.529,0,0,1,.937.93l.007.013a1.492,1.492,0,0,1,.089.493,1.526,1.526,0,0,1-1.524,1.524m3.811-3.049H21.685c-.009-.016-.021-.029-.03-.045-.051-.084-.105-.165-.164-.244-.044-.06-.094-.116-.143-.172a3.083,3.083,0,0,0-.284-.289c-.07-.062-.141-.123-.217-.179s-.127-.089-.194-.131a3,3,0,0,0-.3-.165c-.059-.028-.117-.057-.178-.081a3.035,3.035,0,0,0-.428-.133c-.051-.011-.1-.022-.152-.031a2.691,2.691,0,0,0-1.074,0c-.05.009-.1.02-.151.031a3.021,3.021,0,0,0-.434.135c-.056.023-.111.05-.166.075a3.181,3.181,0,0,0-.313.17c-.065.041-.127.083-.189.127-.079.058-.153.122-.226.188a2.99,2.99,0,0,0-.271.276c-.051.059-.1.117-.149.181-.058.079-.111.159-.162.242-.009.016-.021.029-.03.045H15.244V6.1h3.049V9.909a.762.762,0,0,0,.762.762h3.811Z" transform="translate(0 0)" fill="#003575"/>
      </g>
    </g>
  </g>
</svg>
