<svg xmlns="http://www.w3.org/2000/svg" width="16.722" height="19.248" viewBox="0 0 16.722 19.248">
  <path id="Icon_simple-tiktok" data-name="Icon simple-tiktok" d="M11.151.016C12.2,0,13.245.008,14.287,0a5,5,0,0,0,1.4,3.344,5.656,5.656,0,0,0,3.4,1.436V8.012a8.584,8.584,0,0,1-3.368-.778,9.909,9.909,0,0,1-1.3-.746c-.008,2.342.008,4.684-.016,7.017a6.126,6.126,0,0,1-1.083,3.16,5.975,5.975,0,0,1-4.74,2.574,5.848,5.848,0,0,1-3.272-.826,6.048,6.048,0,0,1-2.927-4.579c-.016-.4-.024-.8-.008-1.195a6.038,6.038,0,0,1,7-5.357c.016,1.187-.032,2.374-.032,3.561a2.752,2.752,0,0,0-3.513,1.7,3.182,3.182,0,0,0-.112,1.291,2.73,2.73,0,0,0,2.807,2.3,2.694,2.694,0,0,0,2.222-1.291,1.85,1.85,0,0,0,.329-.85c.08-1.436.048-2.863.056-4.3.008-3.232-.008-6.456.016-9.68Z" transform="translate(-2.369)" fill="#fff"/>
</svg>
